HIERARCHY
ROOT joint_0
{
	OFFSET 0.000000 0.000000 0.000000
	CHANNELS 6 Xposition Yposition Zposition Zrotation Yrotation Xrotation 
	JOINT joint_1
	{
		OFFSET 6.004005 -1.946999 100.587036
		CHANNELS 3 Zrotation Yrotation Xrotation
		JOINT joint_2
		{
			OFFSET -4.601006 -0.824997 91.925903
			CHANNELS 3 Zrotation Yrotation Xrotation
			JOINT joint_3
			{
				OFFSET -5.420998 -1.130005 91.774048
				CHANNELS 3 Zrotation Yrotation Xrotation
				JOINT joint_4
				{
					OFFSET 4.308998 -3.777992 123.473999
					CHANNELS 3 Zrotation Yrotation Xrotation
					JOINT joint_5
					{
						OFFSET 25.565002 -6.305008 79.437988
						CHANNELS 3 Zrotation Yrotation Xrotation
						End Site
						{
							OFFSET 0.000000 0.000000 0.000000
						}
					}
				}
				JOINT joint_6
				{
					OFFSET -1.750000 -28.655998 68.557983
					CHANNELS 3 Zrotation Yrotation Xrotation
					JOINT joint_7
					{
						OFFSET -17.692001 -116.544006 -17.244019
						CHANNELS 3 Zrotation Yrotation Xrotation
						JOINT joint_8
						{
							OFFSET 27.063004 -23.640991 -266.895020
							CHANNELS 3 Zrotation Yrotation Xrotation
							JOINT joint_9
							{
								OFFSET 40.722000 -15.761017 -232.488953
								CHANNELS 3 Zrotation Yrotation Xrotation
								End Site
								{
									OFFSET 0.000000 0.000000 0.000000
								}
							}
						}
					}
				}
				JOINT joint_10
				{
					OFFSET 6.593002 24.457001 69.892944
					CHANNELS 3 Zrotation Yrotation Xrotation
					JOINT joint_11
					{
						OFFSET 24.311996 114.920002 -19.872925
						CHANNELS 3 Zrotation Yrotation Xrotation
						JOINT joint_12
						{
							OFFSET 21.081001 15.319000 -268.037964
							CHANNELS 3 Zrotation Yrotation Xrotation
							JOINT joint_13
							{
								OFFSET 27.794006 -8.947001 -234.744080
								CHANNELS 3 Zrotation Yrotation Xrotation
								End Site
								{
									OFFSET 0.000000 0.000000 0.000000
								}
							}
						}
					}
				}
			}
		}
	}
	JOINT joint_14
	{
		OFFSET -6.627998 -80.520004 -98.790039
		CHANNELS 3 Zrotation Yrotation Xrotation
		JOINT joint_15
		{
			OFFSET -43.638000 -13.751999 -502.538971
			CHANNELS 3 Zrotation Yrotation Xrotation
			JOINT joint_16
			{
				OFFSET -39.532999 -9.912994 -398.071007
				CHANNELS 3 Zrotation Yrotation Xrotation
				JOINT joint_17
				{
					OFFSET 174.940004 -34.660995 -75.688002
					CHANNELS 3 Zrotation Yrotation Xrotation
					End Site
					{
						OFFSET 0.000000 0.000000 0.000000
					}
				}
			}
		}
	}
	JOINT joint_18
	{
		OFFSET 12.591003 79.842003 -98.765015
		CHANNELS 3 Zrotation Yrotation Xrotation
		JOINT joint_19
		{
			OFFSET -39.080002 -1.297001 -503.101013
			CHANNELS 3 Zrotation Yrotation Xrotation
			JOINT joint_20
			{
				OFFSET -51.570000 -0.514000 -396.815987
				CHANNELS 3 Zrotation Yrotation Xrotation
				JOINT joint_21
				{
					OFFSET 178.987999 -11.521999 -73.244003
					CHANNELS 3 Zrotation Yrotation Xrotation
					End Site
					{
						OFFSET 0.000000 0.000000 0.000000
					}
				}
			}
		}
	}
}
MOTION
Frames: 6
Frame Time: 0.016667
148.714000 -153.179990 1092.360960 -2.955387 3.219105 -1.117858 0.227718 -2.563999 -0.034674 0.299052 0.359610 -0.030451 0.290849 -0.558110 -0.049889 -0.425748 0.799549 1.526510 0.000000 0.000000 0.000000 1.503485 0.809210 -0.346695 -0.602221 1.484018 -2.785962 0.793549 -10.791923 0.390460 0.000000 0.000000 0.000000 1.746706 -0.838582 2.210337 0.251650 -1.137157 2.400939 -0.373927 -3.001529 -4.164831 0.000000 0.000000 0.000000 -3.126704 -5.261670 2.779289 -3.342713 16.308249 -1.335765 -3.393459 -6.067285 -2.606060 0.000000 0.000000 0.000000 1.660959 -4.364176 2.851684 1.751749 11.845225 1.900646 2.033161 -5.044836 0.489326 0.000000 0.000000 0.000000 
152.677000 -155.332990 1092.089970 -3.122349 3.012798 -1.341064 0.225823 -2.311257 0.258982 0.268836 0.358040 -0.099629 0.268455 -0.523819 0.004777 -0.460519 0.840935 1.646616 0.000000 0.000000 0.000000 1.565596 0.652594 -0.330060 -0.604894 1.368059 -2.978073 0.803993 -10.779653 0.430724 0.000000 0.000000 0.000000 1.676926 -0.969805 2.136753 0.289695 -1.232096 2.242857 -0.325045 -3.449393 -3.914524 0.000000 0.000000 0.000000 -3.047196 -5.082235 3.075302 -3.255181 16.915935 -1.326452 -3.349583 -6.099557 -2.588619 0.000000 0.000000 0.000000 1.776887 -5.020080 2.932303 1.814911 14.271917 2.536822 2.208168 -5.758603 0.508479 0.000000 0.000000 0.000000 
156.766010 -157.605000 1091.807010 -3.352151 2.738774 -1.605766 0.267859 -1.963942 0.628979 0.277759 0.316324 -0.162820 0.285658 -0.449813 0.063560 -0.484411 0.857421 1.726146 0.000000 0.000000 0.000000 1.613412 0.503519 -0.302973 -0.605085 1.249877 -3.108966 0.785878 -10.592360 0.375278 0.000000 0.000000 0.000000 1.615507 -1.077528 1.942870 0.334670 -1.357995 2.220111 -0.284699 -3.906439 -3.739820 0.000000 0.000000 0.000000 -2.989882 -4.729643 3.439578 -3.173585 17.298016 -1.345878 -3.318270 -6.048625 -2.560448 0.000000 0.000000 0.000000 1.896632 -5.731881 3.034210 1.865047 16.947586 3.255492 2.377437 -6.193698 0.541319 0.000000 0.000000 0.000000 
160.932010 -160.002000 1091.511960 -3.619050 2.384214 -1.950635 0.340941 -1.510495 1.154261 0.314947 0.244794 -0.263252 0.335667 -0.337100 0.132876 -0.501219 0.834265 1.772965 0.000000 0.000000 0.000000 1.655557 0.349610 -0.266980 -0.603682 1.122909 -3.209187 0.743011 -10.221213 0.253825 0.000000 0.000000 0.000000 1.546923 -1.174672 1.642476 0.383935 -1.514451 2.294023 -0.249212 -4.360313 -3.606923 0.000000 0.000000 0.000000 -2.958004 -4.221845 3.909485 -3.097835 17.526717 -1.389511 -3.302212 -5.908552 -2.521106 0.000000 0.000000 0.000000 2.025014 -6.511711 3.197098 1.903145 19.916163 4.063939 2.540453 -6.343613 0.587280 0.000000 0.000000 0.000000 
165.182010 -162.337010 1091.410030 -3.903993 2.023436 -2.240451 0.422052 -1.056237 1.624342 0.374772 0.166543 -0.343434 0.408228 -0.226231 0.201940 -0.514831 0.805641 1.807928 0.000000 0.000000 0.000000 1.674047 0.204811 -0.233245 -0.597071 0.993608 -3.261672 0.678299 -9.655597 0.084450 0.000000 0.000000 0.000000 1.515234 -1.240729 1.345670 0.431615 -1.640044 2.341194 -0.213134 -4.802575 -3.463225 0.000000 0.000000 0.000000 -2.902161 -3.693972 4.296808 -3.003849 17.721746 -1.406164 -3.272771 -5.738530 -2.469934 0.000000 0.000000 0.000000 2.192972 -7.529486 3.311182 1.945842 23.313860 4.896455 2.706670 -6.297744 0.643522 0.000000 0.000000 0.000000 
169.533000 -164.515000 1091.691040 -4.216271 1.704551 -2.407122 0.503111 -0.691698 1.953117 0.456304 0.104476 -0.395011 0.501312 -0.141463 0.264288 -0.526125 0.807528 1.843108 0.000000 0.000000 0.000000 1.661335 0.068527 -0.195425 -0.583237 0.860325 -3.262497 0.586520 -8.824761 -0.134790 0.000000 0.000000 0.000000 1.572110 -1.260337 1.109251 0.472624 -1.703241 2.296131 -0.174723 -5.215081 -3.282416 0.000000 0.000000 0.000000 -2.785273 -3.229506 4.504165 -2.868995 17.947863 -1.365900 -3.207682 -5.559140 -2.401506 0.000000 0.000000 0.000000 2.448405 -8.920068 3.334087 2.016654 27.290399 5.711503 2.900615 -5.986409 0.722012 0.000000 0.000000 0.000000 
